<svg xmlns="http://www.w3.org/2000/svg" xmlns:xlink="http://www.w3.org/1999/xlink" viewBox="0 0 41.42 28.16"><defs><style>.cls-1{fill:url(#linear-gradient);}.cls-2{fill:url(#linear-gradient-2);}.cls-3{fill:url(#linear-gradient-3);}.cls-4{fill:url(#linear-gradient-4);}.cls-5{fill:url(#linear-gradient-5);}.cls-6{fill:url(#linear-gradient-6);}.cls-7{fill:url(#linear-gradient-7);}.cls-8{fill:url(#linear-gradient-8);}</style><linearGradient id="linear-gradient" x1="919.81" y1="43.11" x2="919.81" y2="17.37" gradientTransform="matrix(-1, 0, 0, 1, 956, 0)" gradientUnits="userSpaceOnUse"><stop offset="0" stop-color="#15258f"/><stop offset="1" stop-color="#2e4da3"/></linearGradient><linearGradient id="linear-gradient-2" x1="912.67" y1="45.9" x2="912.67" y2="42.06" gradientTransform="matrix(-1, 0, 0, 1, 956, 0)" gradientUnits="userSpaceOnUse"><stop offset="0" stop-color="#ce5b23"/><stop offset="1" stop-color="#de7d39"/></linearGradient><linearGradient id="linear-gradient-3" x1="922.39" y1="45.9" x2="922.39" y2="42.06" gradientTransform="matrix(-1, 0, 0, 1, 944.71, -17.92)" xlink:href="#linear-gradient-2"/><linearGradient id="linear-gradient-4" x1="25.17" y1="49.32" x2="25.17" y2="26.61" gradientTransform="matrix(1, 0, 0, 1, 0, 0)" xlink:href="#linear-gradient-2"/><linearGradient id="linear-gradient-5" x1="16.68" y1="49.32" x2="16.68" y2="26.61" gradientTransform="matrix(1, 0, 0, 1, 0, 0)" xlink:href="#linear-gradient-2"/><linearGradient id="linear-gradient-6" x1="12.24" y1="49.32" x2="12.24" y2="26.61" gradientTransform="matrix(1, 0, 0, 1, 0, 0)" xlink:href="#linear-gradient-2"/><linearGradient id="linear-gradient-7" x1="25.18" y1="49.1" x2="25.18" y2="26.39" gradientTransform="matrix(1, 0, 0, 1, 0, 0)" xlink:href="#linear-gradient-2"/><linearGradient id="linear-gradient-8" x1="18.34" y1="49.1" x2="18.34" y2="26.39" gradientTransform="matrix(1, 0, 0, 1, 0, 0)" xlink:href="#linear-gradient-2"/></defs><g id="OBJECT"><path class="cls-1" d="M19.72,18.91l3,8.37A2.59,2.59,0,0,0,25.16,29H46.54a.47.47,0,0,1,.45.6L46.56,31a.46.46,0,0,1-.44.33H27.92a2.65,2.65,0,0,0-1.61.52,2.59,2.59,0,0,0-.89,3l2.43,6.73a2.6,2.6,0,0,0,2.44,1.72h.59a2.81,2.81,0,0,1,5.46,0h4.27a2.81,2.81,0,0,1,5.45,0h1.15a.74.74,0,0,0,.7-.51l1-3.31a.74.74,0,0,0-.71-.95H32.15a.47.47,0,0,1-.44-.3l-.52-1.45a.46.46,0,0,1,.43-.62H48.07a2.6,2.6,0,0,0,2.49-1.84l2-6.68a2.6,2.6,0,0,0-2.49-3.35H27.41a1,1,0,0,1-.95-.68l-1.84-5.14a.76.76,0,0,0-.7-.49H20.41A.74.74,0,0,0,19.72,18.91Z" transform="translate(-11.29 -17.92)"/><path class="cls-2" d="M41.2,43.93a2.14,2.14,0,1,0,2.13-2.13A2.14,2.14,0,0,0,41.2,43.93Z" transform="translate(-11.29 -17.92)"/><circle class="cls-3" cx="22.32" cy="26.01" r="2.13"/><path class="cls-4" d="M21,46.08h8.41a.8.8,0,0,0,.8-.81h0a.81.81,0,0,0-.8-.81H21a.81.81,0,0,0-.81.81h0A.81.81,0,0,0,21,46.08Z" transform="translate(-11.29 -17.92)"/><path class="cls-5" d="M15.14,46.08h3.08a.81.81,0,0,0,.81-.81h0a.82.82,0,0,0-.81-.81H15.14a.81.81,0,0,0-.81.81h0A.81.81,0,0,0,15.14,46.08Z" transform="translate(-11.29 -17.92)"/><path class="cls-6" d="M12.1,46.08h.29a.8.8,0,0,0,.8-.81h0a.81.81,0,0,0-.8-.81H12.1a.81.81,0,0,0-.81.81h0A.81.81,0,0,0,12.1,46.08Z" transform="translate(-11.29 -17.92)"/><path class="cls-7" d="M24.16,43.43h2a.81.81,0,0,0,.81-.81h0a.81.81,0,0,0-.81-.81h-2a.81.81,0,0,0-.81.81h0A.81.81,0,0,0,24.16,43.43Z" transform="translate(-11.29 -17.92)"/><path class="cls-8" d="M15.28,43.43H21.4a.8.8,0,0,0,.8-.81h0a.8.8,0,0,0-.8-.81H15.28a.81.81,0,0,0-.81.81h0A.81.81,0,0,0,15.28,43.43Z" transform="translate(-11.29 -17.92)"/></g></svg>