<svg id="visual" viewBox="0 0 900 900" width="900" height="900" xmlns="http://www.w3.org/2000/svg" xmlns:xlink="http://www.w3.org/1999/xlink" version="1.1"><rect x="0" y="0" width="900" height="900" fill="#001220"></rect><defs><linearGradient id="grad1_0" x1="0%" y1="0%" x2="100%" y2="100%"><stop offset="30%" stop-color="#a7233a" stop-opacity="1"></stop><stop offset="70%" stop-color="#a7233a" stop-opacity="1"></stop></linearGradient></defs><defs><linearGradient id="grad1_1" x1="0%" y1="0%" x2="100%" y2="100%"><stop offset="30%" stop-color="#a7233a" stop-opacity="1"></stop><stop offset="70%" stop-color="#6d2054" stop-opacity="1"></stop></linearGradient></defs><defs><linearGradient id="grad1_2" x1="0%" y1="0%" x2="100%" y2="100%"><stop offset="30%" stop-color="#292147" stop-opacity="1"></stop><stop offset="70%" stop-color="#6d2054" stop-opacity="1"></stop></linearGradient></defs><defs><linearGradient id="grad1_3" x1="0%" y1="0%" x2="100%" y2="100%"><stop offset="30%" stop-color="#292147" stop-opacity="1"></stop><stop offset="70%" stop-color="#001220" stop-opacity="1"></stop></linearGradient></defs><defs><linearGradient id="grad2_0" x1="0%" y1="0%" x2="100%" y2="100%"><stop offset="30%" stop-color="#a7233a" stop-opacity="1"></stop><stop offset="70%" stop-color="#a7233a" stop-opacity="1"></stop></linearGradient></defs><defs><linearGradient id="grad2_1" x1="0%" y1="0%" x2="100%" y2="100%"><stop offset="30%" stop-color="#6d2054" stop-opacity="1"></stop><stop offset="70%" stop-color="#a7233a" stop-opacity="1"></stop></linearGradient></defs><defs><linearGradient id="grad2_2" x1="0%" y1="0%" x2="100%" y2="100%"><stop offset="30%" stop-color="#6d2054" stop-opacity="1"></stop><stop offset="70%" stop-color="#292147" stop-opacity="1"></stop></linearGradient></defs><defs><linearGradient id="grad2_3" x1="0%" y1="0%" x2="100%" y2="100%"><stop offset="30%" stop-color="#001220" stop-opacity="1"></stop><stop offset="70%" stop-color="#292147" stop-opacity="1"></stop></linearGradient></defs><g transform="translate(900, 0)"><path d="M0 509.1C-48.2 441.5 -96.4 373.8 -140.1 338.1C-183.7 302.5 -222.9 298.9 -284.3 284.3C-345.6 269.6 -429.2 244 -470.4 194.8C-511.5 145.6 -510.3 72.8 -509.1 0L0 0Z" fill="#0e1c35"></path><path d="M0 381.8C-36.1 331.1 -72.3 280.3 -105 253.6C-137.8 226.9 -167.2 224.2 -213.2 213.2C-259.2 202.2 -321.9 183 -352.8 146.1C-383.7 109.2 -382.7 54.6 -381.8 0L0 0Z" fill="#4a2352"></path><path d="M0 254.6C-24.1 220.7 -48.2 186.9 -70 169.1C-91.9 151.2 -111.4 149.4 -142.1 142.1C-172.8 134.8 -214.6 122 -235.2 97.4C-255.8 72.8 -255.2 36.4 -254.6 0L0 0Z" fill="#8e1c4b"></path><path d="M0 127.3C-12 110.4 -24.1 93.4 -35 84.5C-45.9 75.6 -55.7 74.7 -71.1 71.1C-86.4 67.4 -107.3 61 -117.6 48.7C-127.9 36.4 -127.6 18.2 -127.3 0L0 0Z" fill="#a7233a"></path></g><g transform="translate(0, 900)"><path d="M0 -509.1C48.9 -456.9 97.7 -404.7 159.6 -385.3C221.5 -365.8 296.4 -379.2 352.8 -352.8C409.3 -326.5 447.4 -260.3 470.4 -194.8C493.3 -129.4 501.2 -64.7 509.1 0L0 0Z" fill="#0e1c35"></path><path d="M0 -381.8C36.6 -342.7 73.3 -303.5 119.7 -288.9C166.1 -274.4 222.3 -284.4 264.6 -264.6C307 -244.8 335.5 -195.2 352.8 -146.1C370 -97 375.9 -48.5 381.8 0L0 0Z" fill="#4a2352"></path><path d="M0 -254.6C24.4 -228.4 48.9 -202.3 79.8 -192.6C110.7 -182.9 148.2 -189.6 176.4 -176.4C204.7 -163.2 223.7 -130.1 235.2 -97.4C246.7 -64.7 250.6 -32.3 254.6 0L0 0Z" fill="#8e1c4b"></path><path d="M0 -127.3C12.2 -114.2 24.4 -101.2 39.9 -96.3C55.4 -91.5 74.1 -94.8 88.2 -88.2C102.3 -81.6 111.8 -65.1 117.6 -48.7C123.3 -32.3 125.3 -16.2 127.3 0L0 0Z" fill="#a7233a"></path></g></svg>